#!OML:ASF E:\acrobat2\Project_11_07_03\Capture day 1\Session 1\Acrobat.ASF
:FULLY-SPECIFIED
:DEGREES
634
root 10.7558 6.03749 11.6595 -88.466 4.26916 178.649
lowerback -4.74223 -3.36719 4.92739
upperback 0.567193 -4.81579 0.638113
thorax 2.89226 -2.33089 -2.42438
lowerneck 3.66344 -14.7661 -10.8432
upperneck -28.3975 -15.6574 29.6371
head -5.20439 -8.3764 12.1847
rclavicle 3.49861e-014 -2.26863e-014
rhumerus 31.9117 -34.0733 -32.2409
rradius 120.01
rwrist -23.1368
rhand -19.5647 -42.6307
rfingers 7.12502
rthumb 6.76002 -72.5028
lclavicle 3.49861e-014 -2.26863e-014
lhumerus 17.1934 48.6851 2.22816
lradius 108.355
lwrist 34.2023
lhand -5.21991 -25.4487
lfingers 7.12502
lthumb 20.5821 3.48011
rfemur 1.53261 15.6069 -9.15791
rtibia -3.97569e-015
rfoot 31.2117 -24.1505
rtoes 29.9175
lfemur -11.6337 -21.6987 2.59278
ltibia 18.6798
lfoot 37.473 11.342
ltoes 18.4839
635
root 10.7557 6.03735 11.6599 -88.4647 4.26707 178.636
lowerback -4.7463 -3.36525 4.93455
upperback 0.56804 -4.81391 0.638477
thorax 2.89502 -2.32975 -2.42817
lowerneck 3.68042 -14.7757 -10.8353
upperneck -28.4273 -15.6661 29.647
head -5.21428 -8.3826 12.1911
rclavicle -3.18055e-015 -1.94064e-014
rhumerus 31.9182 -34.0728 -32.2117
rradius 119.988
rwrist -23.1186
rhand -19.5843 -42.6074
rfingers 7.12502
rthumb 6.74116 -72.4801
lclavicle -3.18055e-015 -1.94064e-014
lhumerus 17.2207 48.6812 2.26766
lradius 108.357
lwrist 34.2028
lhand -5.34226 -25.3498
lfingers 7.12502
lthumb 20.4645 3.5917
rfemur 1.54168 15.5945 -9.15997
rtibia -6.75868e-015
rfoot 31.1346 -24.2308
rtoes 30.2345
lfemur -11.6472 -21.6816 2.59586
ltibia 18.6877
lfoot 37.4841 11.3158
ltoes 18.3535
636
root 10.7557 6.03722 11.6599 -88.463 4.26152 178.616
lowerback -4.7511 -3.36566 4.94348
upperback 0.568061 -4.81534 0.639481
thorax 2.89701 -2.33028 -2.43249
lowerneck 3.72928 -14.7767 -10.8258
upperneck -28.4941 -15.6549 29.6704
head -5.24392 -8.38164 12.2118
rclavicle -5.24792e-014 1.41883e-014
rhumerus 31.9258 -34.0751 -32.1942
rradius 119.967
rwrist -23.1017
rhand -19.5899 -42.5895
rfingers 7.12502
rthumb 6.73568 -72.4623
lclavicle -5.24792e-014 1.41883e-014
lhumerus 17.2426 48.676 2.29993
lradius 108.359
lwrist 34.2031
lhand -5.47323 -25.2365
lfingers 7.12502
lthumb 20.3387 3.71851
rfemur 1.55468 15.5758 -9.15552
rtibia 6.36111e-015
rfoot 31.0919 -24.2805
rtoes 30.4435
lfemur -11.6677 -21.6572 2.60331
ltibia 18.7016
lfoot 37.4997 11.2635
ltoes 18.094
637
root 10.7559 6.03707 11.6596 -88.4584 4.25392 178.593
lowerback -4.75949 -3.36774 4.95268
upperback 0.568013 -4.81924 0.640731
thorax 2.90075 -2.33198 -2.43709
lowerneck 3.78701 -14.7704 -10.8126
upperneck -28.5774 -15.6283 29.6972
head -5.28352 -8.37366 12.2377
rclavicle 4.45278e-014 1.39149e-015
rhumerus 31.9342 -34.0842 -32.1889
rradius 119.952
rwrist -23.0917
rhand -19.5803 -42.5886
rfingers 7.12502
rthumb 6.74502 -72.4611
lclavicle 4.45278e-014 1.39149e-015
lhumerus 17.2622 48.6738 2.32096
lradius 108.359
lwrist 34.2062
lhand -5.58161 -25.117
lfingers 7.12502
lthumb 20.2345 3.84901
rfemur 1.56581 15.5528 -9.14754
rtibia -1.94809e-014
rfoot 31.0838 -24.2875
rtoes 30.5801
lfemur -11.6949 -21.6355 2.61539
ltibia 18.7188
lfoot 37.5146 11.2097
ltoes 17.8563
638
root 10.7561 6.03669 11.6589 -88.4463 4.24762 178.571
lowerback -4.7786 -3.36975 4.96112
upperback 0.568174 -4.8236 0.641079
thorax 2.91068 -2.33373 -2.443
lowerneck 3.82366 -14.7631 -10.7907
upperneck -28.6458 -15.6013 29.7092
head -5.31775 -8.36356 12.2533
rclavicle 3.81667e-014 1.25483e-014
rhumerus 31.9386 -34.1032 -32.1931
rradius 119.947
rwrist -23.092
rhand -19.5577 -42.5999
rfingers 7.12502
rthumb 6.76684 -72.4718
lclavicle 3.81667e-014 1.25483e-014
lhumerus 17.2808 48.6767 2.33052
lradius 108.359
lwrist 34.2207
lhand -5.67601 -24.9961
lfingers 7.12502
lthumb 20.1438 3.97959
rfemur 1.56916 15.5268 -9.14263
rtibia 1.19271e-015
rfoot 31.1036 -24.2631
rtoes 30.6072
lfemur -11.7303 -21.6218 2.62946
ltibia 18.7379
lfoot 37.5217 11.1655
ltoes 17.7254
639
root 10.7562 6.03612 11.658 -88.4295 4.24748 178.548
lowerback -4.80539 -3.37188 4.96492
upperback 0.568831 -4.82823 0.638918
thorax 2.92556 -2.33548 -2.44951
lowerneck 3.82428 -14.7609 -10.7551
upperneck -28.6803 -15.5868 29.694
head -5.33756 -8.35657 12.2482
rclavicle 9.54166e-015 1.54058e-014
rhumerus 31.935 -34.1287 -32.2033
rradius 119.952
rwrist -23.099
rhand -19.5341 -42.6106
rfingers 7.12502
rthumb 6.7896 -72.4818
lclavicle 9.54166e-015 1.54058e-014
lhumerus 17.2947 48.6828 2.33115
lradius 108.363
lwrist 34.2435
lhand -5.74584 -24.9062
lfingers 7.12502
lthumb 20.0767 4.07654
rfemur 1.56763 15.4984 -9.14481
rtibia 1.82882e-014
rfoot 31.1079 -24.2148
rtoes 30.6309
lfemur -11.769 -21.6172 2.63894
ltibia 18.7549
lfoot 37.5263 11.1408
ltoes 17.7512
640
root 10.7563 6.03557 11.6567 -88.4138 4.26193 178.526
lowerback -4.83055 -3.37468 4.95396
upperback 0.570508 -4.83258 0.632313
thorax 2.9414 -2.33724 -2.45236
lowerneck 3.79313 -14.7653 -10.7081
upperneck -28.6848 -15.5874 29.6544
head -5.3437 -8.35417 12.2243
rclavicle -2.22639e-014 2.25621e-014
rhumerus 31.928 -34.1553 -32.2116
rradius 119.959
rwrist -23.108
rhand -19.5255 -42.6178
rfingers 7.12502
rthumb 6.79788 -72.4886
lclavicle -2.22639e-014 2.25621e-014
lhumerus 17.3074 48.6924 2.33156
lradius 108.368
lwrist 34.2604
lhand -5.77332 -24.8669
lfingers 7.12502
lthumb 20.0503 4.11853
rfemur 1.56608 15.4706 -9.1606
rtibia 1.11319e-014
rfoot 31.1432 -24.1318
rtoes 30.556
lfemur -11.8034 -21.6232 2.63183
ltibia 18.7672
lfoot 37.5393 11.1164
ltoes 17.8224
641
root 10.7565 6.03518 11.6554 -88.4002 4.29435 178.507
lowerback -4.85071 -3.37712 4.92318
upperback 0.572289 -4.83472 0.621045
thorax 2.95588 -2.33819 -2.44858
lowerneck 3.73914 -14.7756 -10.6579
upperneck -28.6651 -15.601 29.6023
head -5.33754 -8.35635 12.189
rclavicle -3.18055e-015 -2.45996e-015
rhumerus 31.9182 -34.1782 -32.2141
rradius 119.968
rwrist -23.1131
rhand -19.5308 -42.6209
rfingers 7.12502
rthumb 6.79276 -72.492
lclavicle -3.18055e-015 -2.45996e-015
lhumerus 17.3228 48.7022 2.33864
lradius 108.373
lwrist 34.2692
lhand -5.75936 -24.8802
lfingers 7.12502
lthumb 20.0637 4.10386
rfemur 1.56409 15.446 -9.19562
rtibia 1.07344e-014
rfoot 31.2011 -24.0406
rtoes 30.446
lfemur -11.8308 -21.6331 2.60399
ltibia 18.7732
lfoot 37.558 11.1086
ltoes 17.9649
642
root 10.7568 6.03504 11.6545 -88.3916 4.33682 178.493
lowerback -4.86168 -3.37817 4.88087
upperback 0.574182 -4.8336 0.607109
thorax 2.96625 -2.33778 -2.44035
lowerneck 3.67812 -14.788 -10.6165
upperneck -28.6332 -15.6201 29.5569
head -5.32327 -8.36097 12.1546
rclavicle 0 -2.63141e-014
rhumerus 31.9043 -34.1963 -32.2097
rradius 119.979
rwrist -23.113
rhand -19.5395 -42.6129
rfingers 7.12502
rthumb 6.78438 -72.4842
lclavicle 0 -2.63141e-014
lhumerus 17.3418 48.7101 2.35292
lradius 108.378
lwrist 34.2722
lhand -5.72541 -24.918
lfingers 7.12502
lthumb 20.0963 4.06263
rfemur 1.56405 15.428 -9.24333
rtibia -2.78299e-014
rfoot 31.2282 -23.9975
rtoes 30.4227
lfemur -11.8482 -21.6441 2.56292
ltibia 18.7745
lfoot 37.5762 11.1191
ltoes 18.1356
